<svg version="1.1" id="Layer_1" xmlns="http://www.w3.org/2000/svg" xmlns:xlink="http://www.w3.org/1999/xlink" x="0px" y="0px"
	 width="100%" viewBox="0 0 1728 1117" enable-background="new 0 0 1728 1117" xml:space="preserve">
<path fill="#1C1C1C" opacity="1.000000" stroke="none" 
	d="
M1613.000000,1118.000000 
	C1075.333374,1118.000000 538.166870,1118.000000 1.000216,1118.000000 
	C1.000144,745.666809 1.000144,373.333649 1.000072,1.000244 
	C1.833171,1.000000 2.666341,1.000000 3.499511,1.000000 
	C578.666077,1.000000 1153.832642,1.000000 1728.999268,1.000000 
	C1728.999512,373.333008 1728.999512,745.666016 1728.999756,1117.999512 
	C1690.500000,1118.000000 1652.000000,1118.000000 1613.000000,1118.000000 
M342.018829,462.032043 
	C342.018829,462.032043 342.031799,461.982086 341.331909,462.053802 
	C331.624146,467.518005 328.578613,476.527618 327.562775,487.030884 
	C327.382355,487.075195 327.201904,487.119507 326.215302,487.054199 
	C322.890442,487.669403 319.544617,488.195099 316.255859,488.964722 
	C315.466888,489.149353 314.629730,490.021667 314.230499,490.792908 
	C313.383026,492.430237 312.752472,494.189117 312.135376,495.934357 
	C311.045593,499.016388 309.342377,502.074890 309.110809,505.232361 
	C308.272949,516.657288 317.039825,525.045471 329.232117,525.766296 
	C336.726044,526.209412 344.509857,523.575500 351.761078,527.628540 
	C352.326721,527.944702 353.941864,527.069275 354.624207,526.334412 
	C355.727539,525.146240 356.461182,523.614685 357.831299,521.880066 
	C358.319397,521.251709 358.807495,520.623291 359.279297,520.015869 
	C360.310242,520.915039 361.038971,521.550598 361.971375,522.900635 
	C363.714264,523.825317 365.403717,525.402405 367.210266,525.550476 
	C372.320648,525.969299 377.479034,525.802734 382.450989,526.724670 
	C378.253937,540.208435 382.560425,548.148743 396.176636,551.975525 
	C397.774963,552.424744 399.417877,552.713684 401.036194,553.093689 
	C405.891541,554.233765 410.849854,555.061157 415.573364,556.605713 
	C421.951416,558.691345 424.474396,562.459900 424.012665,567.949890 
	C423.565338,573.268494 419.523712,577.108765 413.343109,578.087769 
	C401.425781,579.975647 394.060913,576.124146 388.353271,565.486755 
	C387.530151,563.952698 385.221100,563.215881 383.599731,562.110168 
	C382.441620,563.845642 380.437042,565.510559 380.285400,567.329895 
	C379.844421,572.620544 379.858337,577.999512 380.343475,583.284180 
	C380.476593,584.734070 382.693604,586.698914 384.306793,587.140686 
	C386.706116,587.797729 388.917297,586.700623 389.067047,583.554016 
	C389.116058,582.523682 389.328491,581.501160 389.493378,580.272522 
	C400.232056,587.056335 404.775604,588.221680 414.736847,586.912598 
	C425.309418,585.523132 432.498413,578.482666 433.443787,568.592163 
	C434.410675,558.475952 429.308960,551.160706 418.751312,547.678101 
	C416.547607,546.951111 414.247742,546.515015 411.991272,545.948608 
	C406.360107,544.535034 400.504120,543.688477 395.155212,541.564636 
	C388.840088,539.057190 388.532104,532.017212 393.781403,527.760986 
	C399.882263,527.044678 405.983124,526.328369 412.824738,525.683044 
	C416.171692,528.507812 419.436890,531.439087 422.907776,534.102356 
	C424.206970,535.099243 426.044464,536.079163 427.525818,535.934387 
	C428.680237,535.821472 430.567047,533.958557 430.570709,532.868103 
	C430.589478,527.263000 430.104797,521.656189 430.354584,515.536194 
	C436.766510,502.858093 430.194519,489.541992 416.400085,487.473053 
	C415.735962,488.750397 415.114990,490.098938 414.361603,491.368896 
	C408.958496,500.476318 400.994080,505.041473 390.374847,504.246948 
	C379.964081,503.468018 372.782318,497.886841 368.898987,488.293854 
	C368.287689,486.783844 369.124695,484.687561 369.981873,483.002563 
	C370.788269,484.283600 371.804230,485.479156 372.367188,486.859467 
	C376.133179,496.093719 385.014099,501.328949 395.154297,500.178833 
	C404.142120,499.159454 411.626312,492.122864 413.130554,483.277679 
	C415.164368,471.318542 408.005219,460.643127 396.372681,458.289246 
	C384.964905,455.980804 374.179321,463.326599 371.364105,475.165070 
	C371.005493,476.672882 369.830475,477.986572 368.227112,479.213348 
	C367.957214,477.789276 367.153992,476.209320 367.516266,474.970062 
	C368.654572,471.076050 370.231201,467.310150 371.766846,463.145386 
	C363.049316,457.303833 353.795685,456.133728 343.350067,460.904633 
	C342.889465,461.277130 342.428864,461.649597 342.018829,462.032043 
M965.156921,517.866211 
	C970.152649,517.875610 975.150085,517.965881 980.143616,517.865906 
	C983.476074,517.799194 986.465027,518.415955 986.622803,522.323120 
	C986.765259,525.851685 984.147522,526.600342 981.009949,527.290955 
	C979.164124,527.697205 977.797241,530.279480 976.214966,531.883118 
	C977.855896,533.429871 979.337219,535.226440 981.204224,536.419373 
	C982.156799,537.027954 983.801575,536.564941 985.133484,536.565857 
	C992.793701,536.571106 1000.454041,536.585388 1008.114197,536.564209 
	C1011.243286,536.555542 1014.013000,537.286926 1014.123596,540.980347 
	C1014.243591,544.987915 1011.332336,545.821045 1008.018555,545.846313 
	C1006.519897,545.857727 1005.021057,545.850586 1003.522339,545.854370 
	C999.192871,545.865295 994.790527,545.425232 990.568848,546.105652 
	C988.812012,546.388855 986.512146,548.907104 986.212341,550.701904 
	C986.004150,551.948486 988.607544,553.960205 990.306091,555.112305 
	C991.236389,555.743286 992.895813,555.334351 994.226440,555.334717 
	C1018.705872,555.341919 1043.185303,555.341492 1067.664673,555.335938 
	C1068.995972,555.335632 1070.670166,555.771667 1071.585815,555.138428 
	C1073.398682,553.884949 1074.792603,552.025452 1076.359619,550.416504 
	C1074.710571,548.903931 1073.264282,546.514709 1071.366943,546.076050 
	C1068.203735,545.344788 1064.751831,545.859009 1061.421387,545.854797 
	C1055.093384,545.846741 1048.764648,545.896729 1042.437622,545.814270 
	C1039.336548,545.773865 1036.690430,544.854309 1036.812012,541.030762 
	C1036.921753,537.582703 1039.273682,536.630371 1042.262573,536.581177 
	C1042.928467,536.570190 1043.594727,536.563721 1044.260742,536.568665 
	C1047.394897,536.592102 1050.666016,536.444946 1051.052612,532.425293 
	C1051.454956,528.242493 1048.572266,527.453186 1045.029541,526.815308 
	C1043.347412,526.512512 1042.053711,524.052673 1040.583984,522.570007 
	C1042.159912,521.019409 1043.567627,519.211609 1045.381470,518.024658 
	C1046.317993,517.411804 1047.976074,517.894836 1049.308228,517.894531 
	C1062.963379,517.891357 1076.618652,517.868286 1090.273804,517.904785 
	C1093.658203,517.913818 1096.526001,517.011047 1096.510864,513.138123 
	C1096.495972,509.336884 1093.744263,508.247040 1090.300049,508.323547 
	C1086.561646,508.406586 1082.819824,508.342377 1079.013794,508.342377 
	C1082.873291,468.068909 1052.648682,445.009583 1027.240845,443.797089 
	C1012.424683,443.090027 999.139648,446.969452 987.825806,456.498840 
	C971.865967,469.941254 965.739685,487.505707 967.049866,507.543976 
	C964.444580,508.813477 961.787903,510.252472 960.665466,512.468567 
	C960.197327,513.392822 962.994568,515.970825 965.156921,517.866211 
M906.718750,506.853394 
	C906.718750,505.097046 906.718750,503.340729 906.718750,500.165649 
	C892.296448,517.314636 878.798401,533.364685 865.009399,549.760681 
	C851.135620,533.265564 837.657837,517.241211 823.281250,500.148224 
	C823.281250,508.057251 823.460144,514.359497 823.211670,520.644897 
	C823.070984,524.204407 824.070740,526.903625 826.412415,529.626892 
	C835.734131,540.467834 844.820923,551.510803 854.180054,562.700378 
	C844.569824,574.182800 835.065002,585.510437 825.611084,596.880432 
	C824.685974,597.993103 823.452026,599.349731 823.418518,600.621033 
	C823.214539,608.359375 823.316650,616.105835 823.316650,625.278992 
	C837.769409,608.082886 851.268677,592.021179 865.013733,575.667114 
	C878.816345,592.085388 892.284424,608.105774 906.718689,625.275452 
	C906.718689,616.808105 906.926270,610.010742 906.601990,603.238892 
	C906.493774,600.979797 905.522095,598.380981 904.096252,596.627930 
	C894.862183,585.275085 885.393494,574.112976 875.870056,562.731079 
	C882.484924,554.765869 888.362427,546.385437 895.557068,539.352661 
	C904.708618,530.406860 908.791443,520.345520 906.718750,506.853394 
M486.693054,586.014832 
	C491.523010,586.011230 496.376587,586.269897 501.167969,585.838257 
	C502.537109,585.714905 504.858917,583.454407 504.733704,582.416504 
	C504.542877,580.834534 502.805542,579.189575 501.335052,578.095276 
	C500.277039,577.307983 498.039490,577.859680 497.259155,576.984192 
	C490.885651,569.833618 484.731171,562.487915 478.356812,555.021912 
	C481.303406,552.403564 483.678345,550.074585 486.278381,548.032104 
	C490.574188,544.657532 493.624939,539.282043 500.278564,539.474304 
	C501.035522,539.496216 502.487122,536.709778 502.472076,535.237183 
	C502.460846,534.138306 500.642670,532.163574 499.561249,532.115784 
	C492.745941,531.814453 485.908234,531.831726 479.087128,532.042175 
	C477.992340,532.075928 476.272888,533.453003 476.037231,534.482544 
	C475.716187,535.885437 476.052002,538.080994 477.006287,538.965698 
	C478.120087,539.998352 480.203979,539.984558 482.591766,540.616638 
	C475.524933,546.809448 468.890625,552.623230 461.213745,559.350586 
	C461.213745,546.404724 461.328033,534.957947 461.187012,523.514221 
	C460.974884,506.304810 464.141571,509.270447 445.112701,509.234436 
	C443.756073,509.231842 441.589355,511.481781 441.211029,513.029419 
	C440.520905,515.852844 442.498810,517.187317 445.373718,517.093811 
	C447.489075,517.024963 449.608459,517.080322 451.900970,517.080322 
	C451.900970,537.644409 451.900970,557.668152 451.900970,578.072205 
	C449.397675,578.072205 447.094635,577.594604 445.168274,578.240479 
	C443.889496,578.669250 442.378815,580.708679 442.384949,582.020447 
	C442.391113,583.334900 444.099091,585.724060 445.152710,585.775696 
	C452.130096,586.118103 459.139618,586.117493 466.117981,585.788696 
	C467.159027,585.739685 468.836456,583.394775 468.863708,582.083740 
	C468.890869,580.776794 467.479462,578.975891 466.207550,578.236511 
	C464.936859,577.497864 463.057617,577.806152 461.722107,577.681396 
	C458.605927,567.997864 467.237915,565.906006 471.741638,560.503174 
	C476.679291,566.374390 481.296997,571.865112 486.236694,577.738708 
	C479.464600,578.198669 478.285858,579.052856 478.743805,582.673889 
	C479.342621,587.409424 483.074554,585.626221 486.693054,586.014832 
M1130.123779,591.664246 
	C1131.445679,598.499390 1132.767456,605.334534 1134.084717,612.145508 
	C1139.229126,612.145508 1143.981934,612.145508 1149.024292,612.145508 
	C1151.519409,596.089050 1153.981567,580.244629 1156.430054,564.488647 
	C1152.866211,564.488647 1150.113159,564.488647 1147.309448,564.488647 
	C1145.417358,577.213623 1143.576294,589.595459 1141.735229,601.977234 
	C1141.367065,602.002258 1140.999023,602.027344 1140.630859,602.052368 
	C1138.232056,589.463257 1135.833252,576.874146 1133.437378,564.300720 
	C1128.436279,564.300720 1123.972534,564.300720 1119.230225,564.300720 
	C1116.779419,577.134888 1114.349609,589.859375 1111.919922,602.583923 
	C1111.619873,602.557373 1111.319946,602.530884 1111.020020,602.504333 
	C1109.103394,589.742432 1107.186646,576.980469 1105.311401,564.494019 
	C1101.890015,564.494019 1099.145996,564.494019 1096.214722,564.494019 
	C1098.562744,579.677979 1100.797241,594.483459 1103.241699,609.254150 
	C1103.435791,610.426331 1105.015259,612.166931 1106.070068,612.257690 
	C1110.160034,612.609558 1114.298218,612.400879 1118.555908,612.400879 
	C1121.049805,599.307007 1123.450073,586.704590 1125.850342,574.102234 
	C1126.182983,574.131897 1126.515747,574.161499 1126.848389,574.191162 
	C1127.898315,579.731812 1128.948120,585.272461 1130.123779,591.664246 
M632.419495,531.696167 
	C627.403564,545.997742 622.387634,560.299255 617.371643,574.600830 
	C616.999756,574.520691 616.627808,574.440613 616.255859,574.360474 
	C610.606079,557.963074 604.956299,541.565674 599.025146,524.351746 
	C602.338257,524.351746 604.790955,524.844666 606.885742,524.190735 
	C608.470764,523.696106 610.380493,521.884277 610.662964,520.380188 
	C610.860107,519.330078 608.602051,516.734436 607.352783,516.674988 
	C599.872070,516.318909 592.357300,516.322693 584.877319,516.685974 
	C583.748108,516.740784 582.048096,519.242615 581.907898,520.734314 
	C581.805359,521.824707 584.005798,524.261047 584.875671,524.126831 
	C589.858887,523.358032 590.647766,526.763306 591.828430,530.143433 
	C597.858093,547.405640 604.006775,564.626526 609.975098,581.909729 
	C611.241943,585.578491 613.320129,587.324829 617.286377,587.259766 
	C621.528809,587.190125 622.886292,584.443787 624.060791,581.128296 
	C630.278931,563.574890 636.628662,546.067627 642.732971,528.475037 
	C643.753723,525.533020 644.948914,523.919983 648.266296,524.313416 
	C650.882935,524.623718 652.814697,523.202454 652.161682,520.590942 
	C651.763916,519.000366 649.817993,516.726868 648.441467,516.634338 
	C642.137329,516.210388 635.788696,516.452881 629.456055,516.446106 
	C626.809753,516.443237 624.975769,517.815247 625.623657,520.350342 
	C626.020569,521.903381 627.865784,523.420288 629.433838,524.236084 
	C630.724121,524.907349 632.563843,524.522583 634.595642,524.628601 
	C633.858521,527.164246 633.307312,529.060181 632.419495,531.696167 
M734.816345,549.411865 
	C734.355896,552.529297 733.550903,555.640442 733.493652,558.765259 
	C733.222412,573.562622 740.493347,583.798889 753.523682,586.447449 
	C763.929749,588.562744 774.064636,586.842041 783.746765,582.605042 
	C786.529846,581.387085 787.855042,579.337341 786.424622,576.165771 
	C784.954224,572.905640 782.946533,572.956299 780.003357,574.395325 
	C772.033569,578.291809 763.637207,580.009155 754.812256,577.929504 
	C746.953491,576.077698 742.274536,569.029602 743.665955,561.085938 
	C745.268311,561.085938 746.923279,561.085999 748.578247,561.085938 
	C760.238647,561.085754 771.899231,561.050720 783.559326,561.109009 
	C786.544556,561.123962 788.819214,560.707886 788.930847,556.947449 
	C789.244080,546.402100 781.616333,535.205322 771.378784,532.071167 
	C757.278870,527.754639 740.654419,532.357178 734.816345,549.411865 
M515.934143,604.688904 
	C515.570435,608.970520 517.818665,610.213867 521.734192,610.002197 
	C532.639465,609.412781 539.495972,603.108459 544.101379,593.973511 
	C552.412964,577.487244 560.529236,560.901428 568.577881,544.284912 
	C569.906860,541.541199 571.054260,539.583557 574.644897,539.677246 
	C575.746582,539.705994 577.774658,537.213867 577.801636,535.844971 
	C577.826904,534.565247 575.824646,532.191040 574.605957,532.118164 
	C568.297485,531.740784 561.940979,531.738342 555.634583,532.135010 
	C554.442322,532.209961 552.671814,534.606201 552.522461,536.069580 
	C552.404907,537.221924 554.135681,539.065979 555.477051,539.726807 
	C556.904053,540.429749 558.838989,540.101379 560.972839,540.253296 
	C555.732422,551.193115 550.748901,561.596558 545.401855,572.758850 
	C539.802979,561.503174 534.598633,551.040649 529.075806,539.937866 
	C531.938782,539.937866 533.758118,539.928528 535.577271,539.940063 
	C538.283569,539.957092 540.053101,539.045471 540.097534,535.940186 
	C540.141541,532.864014 538.584167,531.866333 535.745300,531.896667 
	C529.247803,531.966003 522.748535,531.968384 516.251160,531.893860 
	C513.663696,531.864197 512.118225,532.713257 511.985229,535.518677 
	C511.846252,538.451233 513.209778,540.094849 516.077271,539.856567 
	C518.979736,539.615356 520.075806,541.157471 521.211853,543.433411 
	C527.080322,555.190430 533.120911,566.861511 539.029175,578.598938 
	C539.666504,579.864990 540.364929,581.457886 540.140198,582.742615 
	C538.617371,591.449219 529.410889,599.820374 520.679382,601.105652 
	C519.031372,601.348206 517.577271,602.907959 515.934143,604.688904 
M700.539490,578.770813 
	C701.203125,578.192993 701.866760,577.615173 702.745239,576.850342 
	C703.908997,586.024292 701.910522,586.113098 712.493286,586.015015 
	C713.824524,586.002625 715.445618,586.467346 716.418640,585.871765 
	C717.853149,584.993774 719.733337,583.367676 719.741943,582.049255 
	C719.750610,580.716614 717.940613,578.957153 716.498840,578.154907 
	C715.236755,577.452759 713.379883,577.819702 711.920532,577.723328 
	C711.752502,576.901184 711.628967,576.576538 711.628052,576.251465 
	C711.600891,566.598572 711.676270,556.944580 711.549683,547.293091 
	C711.305847,528.697327 714.276794,532.306702 695.480164,531.900452 
	C695.313843,531.896851 695.087158,531.832764 694.989929,531.915649 
	C693.586121,533.113159 691.432007,534.097961 690.977356,535.595215 
	C690.161804,538.281006 691.772949,539.967468 694.792542,539.916504 
	C697.372986,539.872986 699.954773,539.907532 702.733459,539.907532 
	C702.733459,546.337830 702.946106,551.997864 702.679138,557.635132 
	C702.351807,564.547668 699.930298,570.665405 694.217712,574.973999 
	C689.882507,578.243713 684.926086,579.920593 679.722107,577.600525 
	C674.602966,575.318176 674.575623,570.323059 674.571350,565.572754 
	C674.562927,556.085999 674.733704,546.593750 674.416504,537.117554 
	C674.357483,535.353638 672.602051,532.444885 671.206177,532.163391 
	C667.690247,531.454102 663.891113,531.637451 660.295227,532.125000 
	C659.108643,532.285889 657.407593,534.453491 657.376770,535.738037 
	C657.344788,537.072815 658.768372,538.992310 660.068115,539.663940 
	C661.545349,540.427185 663.590576,540.091125 665.786255,540.264343 
	C665.786255,542.273376 665.783020,544.065857 665.786865,545.858276 
	C665.804382,554.013184 665.609802,562.175659 665.895020,570.321228 
	C666.280701,581.336975 673.436096,587.684387 684.419006,587.184204 
	C690.792908,586.893921 695.759888,583.798889 700.539490,578.770813 
M966.560120,566.881042 
	C952.445679,558.589294 936.676208,564.346680 934.565979,578.977722 
	C933.673401,585.166138 933.804504,591.676514 934.603394,597.894897 
	C935.884583,607.867981 942.904663,613.146545 953.555359,613.284790 
	C964.628235,613.428467 971.765076,608.430603 973.238770,598.245972 
	C974.157104,591.899353 974.254700,585.198547 973.245605,578.892761 
	C972.591858,574.807922 969.276245,571.148987 966.560120,566.881042 
M979.707947,622.859985 
	C980.661743,630.016052 985.562561,624.157288 988.874146,626.844177 
	C988.874146,619.809143 988.874146,614.152466 988.874146,608.022034 
	C995.574402,614.037781 1002.423950,614.842041 1008.359375,610.765442 
	C1015.052185,606.168701 1018.221313,596.044495 1014.393066,587.968262 
	C1008.557739,575.657654 999.723206,573.716858 988.721802,582.313477 
	C988.388306,580.918457 988.064453,579.563843 987.782837,578.386108 
	C984.958496,578.386108 982.522339,578.386108 980.164734,578.386108 
	C979.986938,578.949707 979.801819,579.263855 979.800903,579.578552 
	C979.759766,593.711121 979.734802,607.843811 979.707947,622.859985 
M1264.045166,564.410217 
	C1263.824341,570.678223 1263.481567,576.944885 1263.410889,583.214600 
	C1263.302856,592.803528 1263.382568,602.394653 1263.382568,612.155762 
	C1266.577393,612.155762 1269.154297,612.155762 1272.225586,612.155762 
	C1272.225586,605.783142 1271.984863,599.641052 1272.297852,593.527283 
	C1272.574463,588.123901 1276.097168,585.079102 1281.002930,585.263000 
	C1285.869141,585.445374 1288.217896,588.172668 1288.296509,593.993164 
	C1288.376831,599.942078 1288.314209,605.892883 1288.314209,612.066101 
	C1291.465942,612.066101 1294.160645,612.066101 1297.036743,612.066101 
	C1297.036743,604.587708 1297.294067,597.434814 1296.968384,590.308533 
	C1296.599487,582.233826 1290.694580,576.980530 1282.654175,577.897400 
	C1279.162842,578.295532 1275.869995,580.432556 1272.233643,581.880676 
	C1272.233643,576.346863 1272.233643,570.421631 1272.233643,564.160950 
	C1269.506836,564.160950 1267.201538,564.160950 1264.045166,564.410217 
M1223.540771,612.404846 
	C1224.962769,612.305847 1226.384888,612.206787 1228.040894,612.091492 
	C1228.040894,605.253174 1228.079346,598.783081 1228.031616,592.313599 
	C1227.964600,583.233093 1223.291260,578.023865 1214.225830,577.299744 
	C1206.444458,576.678223 1200.369385,579.834839 1195.807373,586.673401 
	C1198.122925,588.075989 1200.316528,589.404785 1202.468384,590.708252 
	C1207.079468,584.968750 1210.999390,583.021484 1215.196655,585.050720 
	C1217.093628,585.967896 1218.300903,588.311401 1220.680664,590.966919 
	C1213.770264,591.838501 1208.803955,592.230042 1203.934326,593.139893 
	C1198.089722,594.231812 1194.701782,598.354370 1194.946899,603.387695 
	C1195.202759,608.642334 1199.188110,612.494995 1205.143677,613.126709 
	C1210.488281,613.693542 1215.467407,613.117798 1217.855225,609.056152 
	C1219.687012,610.311218 1221.214600,611.357849 1223.540771,612.404846 
M1046.889893,580.537476 
	C1037.433838,574.786133 1026.566284,576.951111 1021.712952,585.553101 
	C1016.550171,594.703491 1019.923950,607.008240 1028.827759,611.502441 
	C1037.481445,615.870361 1048.054565,612.781494 1051.910645,604.598389 
	C1049.818604,603.371765 1047.711914,602.136597 1045.679077,600.944702 
	C1041.019531,605.684937 1037.683105,606.871826 1033.639526,605.180420 
	C1030.559814,603.892151 1028.507446,601.818909 1028.931396,597.686401 
	C1037.032593,597.686401 1044.928223,597.686401 1052.963623,597.686401 
	C1053.540649,591.015137 1052.373901,585.388306 1046.889893,580.537476 
M1173.101807,613.159241 
	C1180.513306,613.784180 1186.724976,611.935730 1190.832764,604.812073 
	C1188.369995,603.374207 1186.270996,602.148682 1184.080933,600.869995 
	C1180.877563,605.050781 1176.942749,607.319946 1172.240479,605.038208 
	C1169.885254,603.895325 1168.342896,601.076904 1166.432983,599.016357 
	C1166.796265,598.568115 1167.159668,598.119934 1167.523071,597.671753 
	C1175.447144,597.671753 1183.371338,597.671753 1191.223389,597.671753 
	C1192.647095,587.690979 1188.139160,580.005005 1179.904419,577.873840 
	C1170.024414,575.316833 1161.098877,580.341431 1158.526489,589.908447 
	C1155.619019,600.721741 1161.283813,610.251465 1173.101807,613.159241 
M1326.646240,612.248230 
	C1329.614502,610.135559 1332.582764,608.022949 1336.261719,605.404480 
	C1332.884521,603.437073 1330.764893,602.202332 1328.522949,600.896240 
	C1325.445557,604.772095 1321.624146,607.341309 1316.850586,605.120667 
	C1314.453247,604.005493 1312.826416,601.234314 1310.851074,599.212036 
	C1311.212402,598.741882 1311.573730,598.271667 1311.935059,597.801514 
	C1319.848022,597.801514 1327.761108,597.801514 1335.842163,597.801514 
	C1336.623901,590.148804 1335.115112,583.729919 1328.491577,579.721802 
	C1322.264648,575.953796 1315.673950,576.136230 1309.660522,580.198364 
	C1303.366211,584.450195 1301.468018,590.866272 1302.578003,598.149475 
	C1304.331177,609.652954 1313.154053,615.019165 1326.646240,612.248230 
M1067.181519,593.771118 
	C1068.580444,587.303528 1071.542847,584.674011 1076.708130,585.315125 
	C1081.506470,585.910706 1083.246704,588.513550 1083.272461,595.220886 
	C1083.293823,600.810913 1083.276733,606.401001 1083.276733,612.182983 
	C1086.486572,612.182983 1089.074829,612.182983 1092.044312,612.182983 
	C1092.044312,605.006470 1092.170898,598.044617 1092.005127,591.089722 
	C1091.867310,585.306030 1089.370850,580.812561 1083.769409,578.570557 
	C1078.268311,576.368774 1072.970337,577.811768 1068.514893,582.487061 
	C1068.252319,582.762512 1067.684570,582.747192 1067.223511,582.877197 
	C1067.063232,581.290649 1066.918945,579.863281 1066.775757,578.447205 
	C1063.891479,578.447205 1061.320557,578.447205 1058.337158,578.447205 
	C1058.337158,584.211243 1058.337036,589.671814 1058.337036,595.132385 
	C1058.337036,600.733032 1058.337158,606.333740 1058.337158,612.161987 
	C1061.488403,612.161987 1064.086182,612.161987 1067.155884,612.161987 
	C1067.155884,606.288269 1067.155884,600.502563 1067.181519,593.771118 
M1253.167236,585.672668 
	C1254.612793,585.587036 1256.058350,585.501465 1257.408203,585.421570 
	C1257.408203,582.796082 1257.408203,580.579956 1257.408203,577.987793 
	C1254.229004,577.987793 1251.452759,577.987793 1248.183838,577.987793 
	C1248.183838,574.369202 1248.183838,571.133972 1248.183838,568.008301 
	C1245.106567,568.008301 1242.541016,568.008301 1239.665527,568.008301 
	C1239.665527,571.474121 1239.665527,574.580444 1239.665527,577.856934 
	C1236.616699,578.058899 1233.881226,578.240112 1231.173828,578.419434 
	C1231.173828,580.963745 1231.173828,583.074585 1231.173828,585.403320 
	C1234.112305,585.606201 1236.846313,585.795044 1239.725464,585.993835 
	C1239.725464,592.762146 1239.729004,599.075928 1239.724121,605.389709 
	C1239.721313,609.022339 1241.308472,611.693420 1244.994995,612.117737 
	C1248.511353,612.522522 1252.110718,612.205017 1255.604980,612.205017 
	C1255.604980,609.528687 1255.604980,607.436646 1255.604980,605.383240 
	C1248.371704,604.567993 1248.371704,604.567993 1248.372559,597.025635 
	C1248.372925,594.531921 1248.567383,592.018921 1248.323364,589.549316 
	C1248.018188,586.460022 1249.154907,585.196167 1253.167236,585.672668 
M1347.941040,612.397522 
	C1348.670288,611.430542 1349.957397,610.502625 1350.028442,609.489563 
	C1350.283447,605.850281 1350.127075,602.182251 1350.126953,598.525085 
	C1350.126831,586.772217 1350.343750,586.535950 1361.733154,585.648438 
	C1362.012817,585.626648 1362.269409,585.310120 1362.557617,585.117065 
	C1362.557617,582.867737 1362.557617,580.626892 1362.557617,577.296631 
	C1358.193848,578.458923 1354.388916,579.472412 1350.584106,580.485901 
	C1350.720703,580.148132 1350.857300,579.810364 1350.993896,579.472595 
	C1347.956177,578.898376 1344.918457,578.324158 1341.494995,577.677002 
	C1341.494995,589.807861 1341.494995,600.858093 1341.494995,612.402710 
	C1343.532593,612.402710 1345.322754,612.402710 1347.941040,612.397522 
M1085.156982,529.436646 
	C1083.679443,532.900513 1084.733887,535.677429 1088.323608,536.278564 
	C1092.028809,536.899048 1095.969482,536.799744 1099.696899,536.257446 
	C1101.154785,536.045288 1103.163940,533.886414 1103.366455,532.402039 
	C1103.567139,530.929626 1101.827637,527.808777 1100.909668,527.797424 
	C1095.809570,527.734314 1090.700439,528.397888 1085.156982,529.436646 
M1071.082520,527.061707 
	C1068.443115,527.064087 1065.803101,527.030823 1063.164429,527.078186 
	C1060.104004,527.132996 1057.971313,528.533142 1057.917114,531.747986 
	C1057.862671,534.976379 1059.932739,536.448669 1063.022095,536.518494 
	C1065.660156,536.578125 1068.439697,537.054749 1070.898071,536.390503 
	C1073.071899,535.803101 1076.015747,534.274963 1076.615845,532.488953 
	C1077.672119,529.345398 1075.341187,527.347595 1071.082520,527.061707 
M362.850647,535.139771 
	C362.100525,532.337891 361.350403,529.536072 360.600281,526.734192 
	C359.785278,526.768250 358.970276,526.802368 358.155273,526.836426 
	C357.670654,529.813293 357.186066,532.790222 356.701477,535.767090 
	C358.607330,535.784485 360.513214,535.801880 362.850647,535.139771 
z"/>
<path fill="#E96D4A" opacity="1.000000" stroke="none" 
	d="
M964.732056,517.831543 
	C962.994568,515.970825 960.197327,513.392822 960.665466,512.468567 
	C961.787903,510.252472 964.444580,508.813477 967.049866,507.543976 
	C965.739685,487.505707 971.865967,469.941254 987.825806,456.498840 
	C999.139648,446.969452 1012.424683,443.090027 1027.240845,443.797089 
	C1052.648682,445.009583 1082.873291,468.068909 1079.013794,508.342377 
	C1082.819824,508.342377 1086.561646,508.406586 1090.300049,508.323547 
	C1093.744263,508.247040 1096.495972,509.336884 1096.510864,513.138123 
	C1096.526001,517.011047 1093.658203,517.913818 1090.273804,517.904785 
	C1076.618652,517.868286 1062.963379,517.891357 1049.308228,517.894531 
	C1047.976074,517.894836 1046.317993,517.411804 1045.381470,518.024658 
	C1043.567627,519.211609 1042.159912,521.019409 1040.583984,522.570007 
	C1042.053711,524.052673 1043.347412,526.512512 1045.029541,526.815308 
	C1048.572266,527.453186 1051.454956,528.242493 1051.052612,532.425293 
	C1050.666016,536.444946 1047.394897,536.592102 1044.260742,536.568665 
	C1043.594727,536.563721 1042.928467,536.570190 1042.262573,536.581177 
	C1039.273682,536.630371 1036.921753,537.582703 1036.812012,541.030762 
	C1036.690430,544.854309 1039.336548,545.773865 1042.437622,545.814270 
	C1048.764648,545.896729 1055.093384,545.846741 1061.421387,545.854797 
	C1064.751831,545.859009 1068.203735,545.344788 1071.366943,546.076050 
	C1073.264282,546.514709 1074.710571,548.903931 1076.359619,550.416504 
	C1074.792603,552.025452 1073.398682,553.884949 1071.585815,555.138428 
	C1070.670166,555.771667 1068.995972,555.335632 1067.664673,555.335938 
	C1043.185303,555.341492 1018.705872,555.341919 994.226440,555.334717 
	C992.895813,555.334351 991.236389,555.743286 990.306091,555.112305 
	C988.607544,553.960205 986.004150,551.948486 986.212341,550.701904 
	C986.512146,548.907104 988.812012,546.388855 990.568848,546.105652 
	C994.790527,545.425232 999.192871,545.865295 1003.522339,545.854370 
	C1005.021057,545.850586 1006.519897,545.857727 1008.018555,545.846313 
	C1011.332336,545.821045 1014.243591,544.987915 1014.123596,540.980347 
	C1014.013000,537.286926 1011.243286,536.555542 1008.114197,536.564209 
	C1000.454041,536.585388 992.793701,536.571106 985.133484,536.565857 
	C983.801575,536.564941 982.156799,537.027954 981.204224,536.419373 
	C979.337219,535.226440 977.855896,533.429871 976.214966,531.883057 
	C977.797241,530.279480 979.164124,527.697205 981.009949,527.290955 
	C984.147522,526.600342 986.765259,525.851685 986.622803,522.323120 
	C986.465027,518.415955 983.476074,517.799194 980.143616,517.865906 
	C975.150085,517.965881 970.152649,517.875610 964.732056,517.831543 
z"/>
<path fill="#FAFAFA" opacity="1.000000" stroke="none" 
	d="
M906.718750,507.309082 
	C908.791443,520.345520 904.708618,530.406860 895.557068,539.352661 
	C888.362427,546.385437 882.484924,554.765869 875.870056,562.731079 
	C885.393494,574.112976 894.862183,585.275085 904.096252,596.627930 
	C905.522095,598.380981 906.493774,600.979797 906.601990,603.238892 
	C906.926270,610.010742 906.718689,616.808105 906.718689,625.275452 
	C892.284424,608.105774 878.816345,592.085388 865.013733,575.667114 
	C851.268677,592.021179 837.769409,608.082886 823.316650,625.278992 
	C823.316650,616.105835 823.214539,608.359375 823.418518,600.621033 
	C823.452026,599.349731 824.685974,597.993103 825.611084,596.880432 
	C835.065002,585.510437 844.569824,574.182800 854.180054,562.700378 
	C844.820923,551.510803 835.734131,540.467834 826.412415,529.626892 
	C824.070740,526.903625 823.070984,524.204407 823.211670,520.644897 
	C823.460144,514.359497 823.281250,508.057251 823.281250,500.148224 
	C837.657837,517.241211 851.135620,533.265564 865.009399,549.760681 
	C878.798401,533.364685 892.296448,517.314636 906.718750,500.165649 
	C906.718750,503.340729 906.718750,505.097046 906.718750,507.309082 
z"/>
<path fill="#E7E8E8" opacity="1.000000" stroke="none" 
	d="
M361.767731,522.186218 
	C361.038971,521.550598 360.310242,520.915039 359.279297,520.015869 
	C358.807495,520.623291 358.319397,521.251709 357.105743,522.015564 
	C351.872253,521.879333 347.364319,521.607544 343.201019,521.184937 
	C349.694031,517.685181 349.870636,510.764771 339.614502,500.619659 
	C337.584595,503.684357 335.328400,506.518158 333.701508,509.676178 
	C331.016174,514.888794 332.077454,517.907288 336.825989,521.521912 
	C333.658356,521.847534 330.811615,522.236633 328.024506,521.979492 
	C314.717346,520.751221 308.155029,506.989655 316.122833,496.343170 
	C318.894867,492.639130 323.340240,490.187469 327.021423,487.163849 
	C327.201904,487.119507 327.382355,487.075195 328.189972,486.946899 
	C329.798309,486.070892 331.566406,485.344788 331.639069,484.476746 
	C332.376068,475.674683 336.930756,468.718170 342.031799,461.982086 
	C342.031799,461.982086 342.018829,462.032043 342.303955,462.039459 
	C343.050720,461.659668 343.512360,461.272491 343.973969,460.885284 
	C353.795685,456.133728 363.049316,457.303833 371.766846,463.145386 
	C370.231201,467.310150 368.654572,471.076050 367.516266,474.970062 
	C367.153992,476.209320 367.957214,477.789276 368.638092,479.650085 
	C369.130066,481.012024 369.211090,481.937164 369.292053,482.862335 
	C369.124695,484.687561 368.287689,486.783844 368.898987,488.293854 
	C372.782318,497.886841 379.964081,503.468018 390.374847,504.246948 
	C400.994080,505.041473 408.958496,500.476318 414.361603,491.368896 
	C415.114990,490.098938 415.735962,488.750397 416.400085,487.473053 
	C430.194519,489.541992 436.766510,502.858093 429.744873,515.635071 
	C427.217804,515.757751 424.783691,515.075317 423.523621,515.997375 
	C422.174713,516.984436 421.931793,519.482910 421.206116,521.321655 
	C406.299133,512.669983 396.634827,512.911865 384.562805,522.177856 
	C376.654388,522.147827 369.211060,522.166992 361.767731,522.186218 
z"/>
<path fill="#61A9EB" opacity="1.000000" stroke="none" 
	d="
M486.226349,586.014771 
	C483.074554,585.626221 479.342621,587.409424 478.743805,582.673889 
	C478.285858,579.052856 479.464600,578.198669 486.236694,577.738708 
	C481.296997,571.865112 476.679291,566.374390 471.741638,560.503174 
	C467.237915,565.906006 458.605927,567.997864 461.722107,577.681396 
	C463.057617,577.806152 464.936859,577.497864 466.207550,578.236511 
	C467.479462,578.975891 468.890869,580.776794 468.863708,582.083740 
	C468.836456,583.394775 467.159027,585.739685 466.117981,585.788696 
	C459.139618,586.117493 452.130096,586.118103 445.152710,585.775696 
	C444.099091,585.724060 442.391113,583.334900 442.384949,582.020447 
	C442.378815,580.708679 443.889496,578.669250 445.168274,578.240479 
	C447.094635,577.594604 449.397675,578.072205 451.900970,578.072205 
	C451.900970,557.668152 451.900970,537.644409 451.900970,517.080322 
	C449.608459,517.080322 447.489075,517.024963 445.373718,517.093811 
	C442.498810,517.187317 440.520905,515.852844 441.211029,513.029419 
	C441.589355,511.481781 443.756073,509.231842 445.112701,509.234436 
	C464.141571,509.270447 460.974884,506.304810 461.187012,523.514221 
	C461.328033,534.957947 461.213745,546.404724 461.213745,559.350586 
	C468.890625,552.623230 475.524933,546.809448 482.591766,540.616638 
	C480.203979,539.984558 478.120087,539.998352 477.006287,538.965698 
	C476.052002,538.080994 475.716187,535.885437 476.037231,534.482544 
	C476.272888,533.453003 477.992340,532.075928 479.087128,532.042175 
	C485.908234,531.831726 492.745941,531.814453 499.561249,532.115784 
	C500.642670,532.163574 502.460846,534.138306 502.472076,535.237183 
	C502.487122,536.709778 501.035522,539.496216 500.278564,539.474304 
	C493.624939,539.282043 490.574188,544.657532 486.278381,548.032104 
	C483.678345,550.074585 481.303406,552.403564 478.356812,555.021912 
	C484.731171,562.487915 490.885651,569.833618 497.259155,576.984192 
	C498.039490,577.859680 500.277039,577.307983 501.335052,578.095276 
	C502.805542,579.189575 504.542877,580.834534 504.733704,582.416504 
	C504.858917,583.454407 502.537109,585.714905 501.167969,585.838257 
	C496.376587,586.269897 491.523010,586.011230 486.226349,586.014771 
z"/>
<path fill="#CB0202" opacity="1.000000" stroke="none" 
	d="
M385.027863,522.227173 
	C396.634827,512.911865 406.299133,512.669983 421.206116,521.321655 
	C421.931793,519.482910 422.174713,516.984436 423.523621,515.997375 
	C424.783691,515.075317 427.217804,515.757751 429.465515,515.891968 
	C430.104797,521.656189 430.589478,527.263000 430.570709,532.868103 
	C430.567047,533.958557 428.680237,535.821472 427.525818,535.934387 
	C426.044464,536.079163 424.206970,535.099243 422.907776,534.102356 
	C419.436890,531.439087 416.171692,528.507812 412.131592,525.457153 
	C409.699432,524.821960 407.953613,524.043884 406.222717,524.075745 
	C401.855652,524.156067 396.926422,522.781189 394.041992,527.810364 
	C388.532104,532.017212 388.840088,539.057190 395.155212,541.564636 
	C400.504120,543.688477 406.360107,544.535034 411.991272,545.948608 
	C414.247742,546.515015 416.547607,546.951111 418.751312,547.678101 
	C429.308960,551.160706 434.410675,558.475952 433.443787,568.592163 
	C432.498413,578.482666 425.309418,585.523132 414.736847,586.912598 
	C404.775604,588.221680 400.232056,587.056335 389.493378,580.272522 
	C389.328491,581.501160 389.116058,582.523682 389.067047,583.554016 
	C388.917297,586.700623 386.706116,587.797729 384.306793,587.140686 
	C382.693604,586.698914 380.476593,584.734070 380.343475,583.284180 
	C379.858337,577.999512 379.844421,572.620544 380.285400,567.329895 
	C380.437042,565.510559 382.441620,563.845642 383.599731,562.110168 
	C385.221100,563.215881 387.530151,563.952698 388.353271,565.486755 
	C394.060913,576.124146 401.425781,579.975647 413.343109,578.087769 
	C419.523712,577.108765 423.565338,573.268494 424.012665,567.949890 
	C424.474396,562.459900 421.951416,558.691345 415.573364,556.605713 
	C410.849854,555.061157 405.891541,554.233765 401.036194,553.093689 
	C399.417877,552.713684 397.774963,552.424744 396.176636,551.975525 
	C382.560425,548.148743 378.253937,540.208435 382.674561,526.070740 
	C383.608032,524.353577 384.317963,523.290405 385.027863,522.227173 
z"/>
<path fill="#E7E8E8" opacity="1.000000" stroke="none" 
	d="
M1130.060913,591.238647 
	C1128.948120,585.272461 1127.898315,579.731812 1126.848389,574.191162 
	C1126.515747,574.161499 1126.182983,574.131897 1125.850342,574.102234 
	C1123.450073,586.704590 1121.049805,599.307007 1118.555908,612.400879 
	C1114.298218,612.400879 1110.160034,612.609558 1106.070068,612.257690 
	C1105.015259,612.166931 1103.435791,610.426331 1103.241699,609.254150 
	C1100.797241,594.483459 1098.562744,579.677979 1096.214722,564.494019 
	C1099.145996,564.494019 1101.890015,564.494019 1105.311401,564.494019 
	C1107.186646,576.980469 1109.103394,589.742432 1111.020020,602.504333 
	C1111.319946,602.530884 1111.619873,602.557373 1111.919922,602.583923 
	C1114.349609,589.859375 1116.779419,577.134888 1119.230225,564.300720 
	C1123.972534,564.300720 1128.436279,564.300720 1133.437378,564.300720 
	C1135.833252,576.874146 1138.232056,589.463257 1140.630859,602.052368 
	C1140.999023,602.027344 1141.367065,602.002258 1141.735229,601.977234 
	C1143.576294,589.595459 1145.417358,577.213623 1147.309448,564.488647 
	C1150.113159,564.488647 1152.866211,564.488647 1156.430054,564.488647 
	C1153.981567,580.244629 1151.519409,596.089050 1149.024292,612.145508 
	C1143.981934,612.145508 1139.229126,612.145508 1134.084717,612.145508 
	C1132.767456,605.334534 1131.445679,598.499390 1130.060913,591.238647 
z"/>
<path fill="#61A9EB" opacity="1.000000" stroke="none" 
	d="
M632.587830,531.326111 
	C633.307312,529.060181 633.858521,527.164246 634.595642,524.628601 
	C632.563843,524.522583 630.724121,524.907349 629.433838,524.236084 
	C627.865784,523.420288 626.020569,521.903381 625.623657,520.350342 
	C624.975769,517.815247 626.809753,516.443237 629.456055,516.446106 
	C635.788696,516.452881 642.137329,516.210388 648.441467,516.634338 
	C649.817993,516.726868 651.763916,519.000366 652.161682,520.590942 
	C652.814697,523.202454 650.882935,524.623718 648.266296,524.313416 
	C644.948914,523.919983 643.753723,525.533020 642.732971,528.475037 
	C636.628662,546.067627 630.278931,563.574890 624.060791,581.128296 
	C622.886292,584.443787 621.528809,587.190125 617.286377,587.259766 
	C613.320129,587.324829 611.241943,585.578491 609.975098,581.909729 
	C604.006775,564.626526 597.858093,547.405640 591.828430,530.143433 
	C590.647766,526.763306 589.858887,523.358032 584.875671,524.126831 
	C584.005798,524.261047 581.805359,521.824707 581.907898,520.734314 
	C582.048096,519.242615 583.748108,516.740784 584.877319,516.685974 
	C592.357300,516.322693 599.872070,516.318909 607.352783,516.674988 
	C608.602051,516.734436 610.860107,519.330078 610.662964,520.380188 
	C610.380493,521.884277 608.470764,523.696106 606.885742,524.190735 
	C604.790955,524.844666 602.338257,524.351746 599.025146,524.351746 
	C604.956299,541.565674 610.606079,557.963074 616.255859,574.360474 
	C616.627808,574.440613 616.999756,574.520691 617.371643,574.600830 
	C622.387634,560.299255 627.403564,545.997742 632.587830,531.326111 
z"/>
<path fill="#61A9EB" opacity="1.000000" stroke="none" 
	d="
M734.916626,549.028198 
	C740.654419,532.357178 757.278870,527.754639 771.378784,532.071167 
	C781.616333,535.205322 789.244080,546.402100 788.930847,556.947449 
	C788.819214,560.707886 786.544556,561.123962 783.559326,561.109009 
	C771.899231,561.050720 760.238647,561.085754 748.578247,561.085938 
	C746.923279,561.085999 745.268311,561.085938 743.665955,561.085938 
	C742.274536,569.029602 746.953491,576.077698 754.812256,577.929504 
	C763.637207,580.009155 772.033569,578.291809 780.003357,574.395325 
	C782.946533,572.956299 784.954224,572.905640 786.424622,576.165771 
	C787.855042,579.337341 786.529846,581.387085 783.746765,582.605042 
	C774.064636,586.842041 763.929749,588.562744 753.523682,586.447449 
	C740.493347,583.798889 733.222412,573.562622 733.493652,558.765259 
	C733.550903,555.640442 734.355896,552.529297 734.916626,549.028198 
M772.330811,552.914062 
	C774.433533,552.914062 776.536194,552.914062 778.703369,552.914062 
	C777.198181,543.396851 770.884216,538.760803 760.409363,539.088501 
	C751.474854,539.368042 744.884827,544.802795 744.122803,552.914062 
	C753.227722,552.914062 762.299011,552.914062 772.330811,552.914062 
z"/>
<path fill="#61A9EB" opacity="1.000000" stroke="none" 
	d="
M515.983948,604.274414 
	C517.577271,602.907959 519.031372,601.348206 520.679382,601.105652 
	C529.410889,599.820374 538.617371,591.449219 540.140198,582.742615 
	C540.364929,581.457886 539.666504,579.864990 539.029175,578.598938 
	C533.120911,566.861511 527.080322,555.190430 521.211853,543.433411 
	C520.075806,541.157471 518.979736,539.615356 516.077271,539.856567 
	C513.209778,540.094849 511.846252,538.451233 511.985229,535.518677 
	C512.118225,532.713257 513.663696,531.864197 516.251160,531.893860 
	C522.748535,531.968384 529.247803,531.966003 535.745300,531.896667 
	C538.584167,531.866333 540.141541,532.864014 540.097534,535.940186 
	C540.053101,539.045471 538.283569,539.957092 535.577271,539.940063 
	C533.758118,539.928528 531.938782,539.937866 529.075806,539.937866 
	C534.598633,551.040649 539.802979,561.503174 545.401855,572.758850 
	C550.748901,561.596558 555.732422,551.193115 560.972839,540.253296 
	C558.838989,540.101379 556.904053,540.429749 555.477051,539.726807 
	C554.135681,539.065979 552.404907,537.221924 552.522461,536.069580 
	C552.671814,534.606201 554.442322,532.209961 555.634583,532.135010 
	C561.940979,531.738342 568.297485,531.740784 574.605957,532.118164 
	C575.824646,532.191040 577.826904,534.565247 577.801636,535.844971 
	C577.774658,537.213867 575.746582,539.705994 574.644897,539.677246 
	C571.054260,539.583557 569.906860,541.541199 568.577881,544.284912 
	C560.529236,560.901428 552.412964,577.487244 544.101379,593.973511 
	C539.495972,603.108459 532.639465,609.412781 521.734192,610.002197 
	C517.818665,610.213867 515.570435,608.970520 515.983948,604.274414 
z"/>
<path fill="#61A9EB" opacity="1.000000" stroke="none" 
	d="
M700.288452,579.052673 
	C695.759888,583.798889 690.792908,586.893921 684.419006,587.184204 
	C673.436096,587.684387 666.280701,581.336975 665.895020,570.321228 
	C665.609802,562.175659 665.804382,554.013184 665.786865,545.858276 
	C665.783020,544.065857 665.786255,542.273376 665.786255,540.264343 
	C663.590576,540.091125 661.545349,540.427185 660.068115,539.663940 
	C658.768372,538.992310 657.344788,537.072815 657.376770,535.738037 
	C657.407593,534.453491 659.108643,532.285889 660.295227,532.125000 
	C663.891113,531.637451 667.690247,531.454102 671.206177,532.163391 
	C672.602051,532.444885 674.357483,535.353638 674.416504,537.117554 
	C674.733704,546.593750 674.562927,556.085999 674.571350,565.572754 
	C674.575623,570.323059 674.602966,575.318176 679.722107,577.600525 
	C684.926086,579.920593 689.882507,578.243713 694.217712,574.973999 
	C699.930298,570.665405 702.351807,564.547668 702.679138,557.635132 
	C702.946106,551.997864 702.733459,546.337830 702.733459,539.907532 
	C699.954773,539.907532 697.372986,539.872986 694.792542,539.916504 
	C691.772949,539.967468 690.161804,538.281006 690.977356,535.595215 
	C691.432007,534.097961 693.586121,533.113159 694.989929,531.915649 
	C695.087158,531.832764 695.313843,531.896851 695.480164,531.900452 
	C714.276794,532.306702 711.305847,528.697327 711.549683,547.293091 
	C711.676270,556.944580 711.600891,566.598572 711.628052,576.251465 
	C711.628967,576.576538 711.752502,576.901184 711.920532,577.723328 
	C713.379883,577.819702 715.236755,577.452759 716.498840,578.154907 
	C717.940613,578.957153 719.750610,580.716614 719.741943,582.049255 
	C719.733337,583.367676 717.853149,584.993774 716.418640,585.871765 
	C715.445618,586.467346 713.824524,586.002625 712.493286,586.015015 
	C701.910522,586.113098 703.908997,586.024292 702.745239,576.850342 
	C701.866760,577.615173 701.203125,578.192993 700.288452,579.052673 
z"/>
<path fill="#E96D4A" opacity="1.000000" stroke="none" 
	d="
M369.636963,482.932434 
	C369.211090,481.937164 369.130066,481.012024 369.041382,479.738525 
	C369.830475,477.986572 371.005493,476.672882 371.364105,475.165070 
	C374.179321,463.326599 384.964905,455.980804 396.372681,458.289246 
	C408.005219,460.643127 415.164368,471.318542 413.130554,483.277679 
	C411.626312,492.122864 404.142120,499.159454 395.154297,500.178833 
	C385.014099,501.328949 376.133179,496.093719 372.367188,486.859467 
	C371.804230,485.479156 370.788269,484.283600 369.636963,482.932434 
z"/>
<path fill="#E7E8E8" opacity="1.000000" stroke="none" 
	d="
M966.856750,567.090149 
	C969.276245,571.148987 972.591858,574.807922 973.245605,578.892761 
	C974.254700,585.198547 974.157104,591.899353 973.238770,598.245972 
	C971.765076,608.430603 964.628235,613.428467 953.555359,613.284790 
	C942.904663,613.146545 935.884583,607.867981 934.603394,597.894897 
	C933.804504,591.676514 933.673401,585.166138 934.565979,578.977722 
	C936.676208,564.346680 952.445679,558.589294 966.856750,567.090149 
M962.377258,575.276184 
	C955.573303,568.969971 945.705322,570.508728 944.179321,578.716980 
	C942.993774,585.093994 943.424500,591.943237 944.201111,598.455627 
	C944.757874,603.124756 948.884460,604.959839 953.508728,605.078064 
	C958.260498,605.199646 962.629883,603.753906 963.701172,598.890442 
	C965.378357,591.276489 966.029358,583.445312 962.377258,575.276184 
z"/>
<path fill="#E7E8E8" opacity="1.000000" stroke="none" 
	d="
M979.707947,622.418213 
	C979.734802,607.843811 979.759766,593.711121 979.800903,579.578552 
	C979.801819,579.263855 979.986938,578.949707 980.164734,578.386108 
	C982.522339,578.386108 984.958496,578.386108 987.782837,578.386108 
	C988.064453,579.563843 988.388306,580.918457 988.721802,582.313477 
	C999.723206,573.716858 1008.557739,575.657654 1014.393066,587.968262 
	C1018.221313,596.044495 1015.052185,606.168701 1008.359375,610.765442 
	C1002.423950,614.842041 995.574402,614.037781 988.874146,608.022034 
	C988.874146,614.152466 988.874146,619.809143 988.874146,626.844177 
	C985.562561,624.157288 980.661743,630.016052 979.707947,622.418213 
M998.285339,605.549255 
	C1004.993042,603.991211 1007.836304,599.968140 1006.914246,593.340027 
	C1006.195435,588.172974 1002.387207,584.875549 997.367371,585.073608 
	C992.460693,585.267334 989.051025,588.759033 988.511475,594.142700 
	C987.883667,600.407104 990.897888,604.219543 998.285339,605.549255 
z"/>
<path fill="#E7E8E8" opacity="1.000000" stroke="none" 
	d="
M1264.470703,564.285583 
	C1267.201538,564.160950 1269.506836,564.160950 1272.233643,564.160950 
	C1272.233643,570.421631 1272.233643,576.346863 1272.233643,581.880676 
	C1275.869995,580.432556 1279.162842,578.295532 1282.654175,577.897400 
	C1290.694580,576.980530 1296.599487,582.233826 1296.968384,590.308533 
	C1297.294067,597.434814 1297.036743,604.587708 1297.036743,612.066101 
	C1294.160645,612.066101 1291.465942,612.066101 1288.314209,612.066101 
	C1288.314209,605.892883 1288.376831,599.942078 1288.296509,593.993164 
	C1288.217896,588.172668 1285.869141,585.445374 1281.002930,585.263000 
	C1276.097168,585.079102 1272.574463,588.123901 1272.297852,593.527283 
	C1271.984863,599.641052 1272.225586,605.783142 1272.225586,612.155762 
	C1269.154297,612.155762 1266.577393,612.155762 1263.382568,612.155762 
	C1263.382568,602.394653 1263.302856,592.803528 1263.410889,583.214600 
	C1263.481567,576.944885 1263.824341,570.678223 1264.470703,564.285583 
z"/>
<path fill="#E7E8E8" opacity="1.000000" stroke="none" 
	d="
M1223.141479,612.404663 
	C1221.214600,611.357849 1219.687012,610.311218 1217.855225,609.056152 
	C1215.467407,613.117798 1210.488281,613.693542 1205.143677,613.126709 
	C1199.188110,612.494995 1195.202759,608.642334 1194.946899,603.387695 
	C1194.701782,598.354370 1198.089722,594.231812 1203.934326,593.139893 
	C1208.803955,592.230042 1213.770264,591.838501 1220.680664,590.966919 
	C1218.300903,588.311401 1217.093628,585.967896 1215.196655,585.050720 
	C1210.999390,583.021484 1207.079468,584.968750 1202.468384,590.708252 
	C1200.316528,589.404785 1198.122925,588.075989 1195.807373,586.673401 
	C1200.369385,579.834839 1206.444458,576.678223 1214.225830,577.299744 
	C1223.291260,578.023865 1227.964600,583.233093 1228.031616,592.313599 
	C1228.079346,598.783081 1228.040894,605.253174 1228.040894,612.091492 
	C1226.384888,612.206787 1224.962769,612.305847 1223.141479,612.404663 
M1211.248901,606.020508 
	C1216.049316,605.282959 1219.147949,603.022095 1219.014648,597.102722 
	C1214.805908,597.725220 1210.863525,598.108459 1207.038696,598.997314 
	C1205.910278,599.259583 1204.268555,601.041260 1204.367798,601.964844 
	C1204.508545,603.275574 1205.855103,604.690491 1207.047485,605.573242 
	C1207.854614,606.170837 1209.282227,605.930176 1211.248901,606.020508 
z"/>
<path fill="#E7E8E8" opacity="1.000000" stroke="none" 
	d="
M1047.171631,580.766846 
	C1052.373901,585.388306 1053.540649,591.015137 1052.963623,597.686401 
	C1044.928223,597.686401 1037.032593,597.686401 1028.931396,597.686401 
	C1028.507446,601.818909 1030.559814,603.892151 1033.639526,605.180420 
	C1037.683105,606.871826 1041.019531,605.684937 1045.679077,600.944702 
	C1047.711914,602.136597 1049.818604,603.371765 1051.910645,604.598389 
	C1048.054565,612.781494 1037.481445,615.870361 1028.827759,611.502441 
	C1019.923950,607.008240 1016.550171,594.703491 1021.712952,585.553101 
	C1026.566284,576.951111 1037.433838,574.786133 1047.171631,580.766846 
M1042.803467,591.884888 
	C1043.101318,591.135803 1043.834473,590.225952 1043.626831,589.663452 
	C1042.217529,585.846130 1039.207397,584.458862 1035.343506,584.910217 
	C1031.471924,585.362488 1028.998535,587.303345 1028.885864,591.908203 
	C1033.373047,591.908203 1037.648560,591.908203 1042.803467,591.884888 
z"/>
<path fill="#E7E8E8" opacity="1.000000" stroke="none" 
	d="
M1172.703491,613.123779 
	C1161.283813,610.251465 1155.619019,600.721741 1158.526489,589.908447 
	C1161.098877,580.341431 1170.024414,575.316833 1179.904419,577.873840 
	C1188.139160,580.005005 1192.647095,587.690979 1191.223389,597.671753 
	C1183.371338,597.671753 1175.447144,597.671753 1167.523071,597.671753 
	C1167.159668,598.119934 1166.796265,598.568115 1166.432983,599.016357 
	C1168.342896,601.076904 1169.885254,603.895325 1172.240479,605.038208 
	C1176.942749,607.319946 1180.877563,605.050781 1184.080933,600.869995 
	C1186.270996,602.148682 1188.369995,603.374207 1190.832764,604.812073 
	C1186.724976,611.935730 1180.513306,613.784180 1172.703491,613.123779 
M1167.658325,589.341553 
	C1167.934204,590.187439 1168.185669,591.760132 1168.489502,591.770386 
	C1173.142700,591.926758 1177.802734,591.879150 1182.461182,591.879150 
	C1182.719238,591.309875 1182.977295,590.740540 1183.235352,590.171265 
	C1181.138306,588.450684 1179.289551,586.013367 1176.885132,585.180481 
	C1173.434937,583.985413 1170.025879,585.068604 1167.658325,589.341553 
z"/>
<path fill="#E7E8E8" opacity="1.000000" stroke="none" 
	d="
M1326.286133,612.389465 
	C1313.154053,615.019165 1304.331177,609.652954 1302.578003,598.149475 
	C1301.468018,590.866272 1303.366211,584.450195 1309.660522,580.198364 
	C1315.673950,576.136230 1322.264648,575.953796 1328.491577,579.721802 
	C1335.115112,583.729919 1336.623901,590.148804 1335.842163,597.801514 
	C1327.761108,597.801514 1319.848022,597.801514 1311.935059,597.801514 
	C1311.573730,598.271667 1311.212402,598.741882 1310.851074,599.212036 
	C1312.826416,601.234314 1314.453247,604.005493 1316.850586,605.120667 
	C1321.624146,607.341309 1325.445557,604.772095 1328.522949,600.896240 
	C1330.764893,602.202332 1332.884521,603.437073 1336.261719,605.404480 
	C1332.582764,608.022949 1329.614502,610.135559 1326.286133,612.389465 
M1316.650391,591.907166 
	C1320.020630,591.907166 1323.390747,591.907166 1327.231201,591.907166 
	C1325.985352,586.866028 1323.411133,584.680908 1318.966797,584.859741 
	C1314.813965,585.026855 1312.315552,587.055115 1311.584961,591.686218 
	C1313.214722,591.773376 1314.468384,591.840393 1316.650391,591.907166 
z"/>
<path fill="#E7E8E8" opacity="1.000000" stroke="none" 
	d="
M1067.168701,594.244019 
	C1067.155884,600.502563 1067.155884,606.288269 1067.155884,612.161987 
	C1064.086182,612.161987 1061.488403,612.161987 1058.337158,612.161987 
	C1058.337158,606.333740 1058.337036,600.733032 1058.337036,595.132385 
	C1058.337036,589.671814 1058.337158,584.211243 1058.337158,578.447205 
	C1061.320557,578.447205 1063.891479,578.447205 1066.775757,578.447205 
	C1066.918945,579.863281 1067.063232,581.290649 1067.223511,582.877197 
	C1067.684570,582.747192 1068.252319,582.762512 1068.514893,582.487061 
	C1072.970337,577.811768 1078.268311,576.368774 1083.769409,578.570557 
	C1089.370850,580.812561 1091.867310,585.306030 1092.005127,591.089722 
	C1092.170898,598.044617 1092.044312,605.006470 1092.044312,612.182983 
	C1089.074829,612.182983 1086.486572,612.182983 1083.276733,612.182983 
	C1083.276733,606.401001 1083.293823,600.810913 1083.272461,595.220886 
	C1083.246704,588.513550 1081.506470,585.910706 1076.708130,585.315125 
	C1071.542847,584.674011 1068.580444,587.303528 1067.168701,594.244019 
z"/>
<path fill="#E7E8E8" opacity="1.000000" stroke="none" 
	d="
M1252.691772,585.673035 
	C1249.154907,585.196167 1248.018188,586.460022 1248.323364,589.549316 
	C1248.567383,592.018921 1248.372925,594.531921 1248.372559,597.025635 
	C1248.371704,604.567993 1248.371704,604.567993 1255.604980,605.383240 
	C1255.604980,607.436646 1255.604980,609.528687 1255.604980,612.205017 
	C1252.110718,612.205017 1248.511353,612.522522 1244.994995,612.117737 
	C1241.308472,611.693420 1239.721313,609.022339 1239.724121,605.389709 
	C1239.729004,599.075928 1239.725464,592.762146 1239.725464,585.993835 
	C1236.846313,585.795044 1234.112305,585.606201 1231.173828,585.403320 
	C1231.173828,583.074585 1231.173828,580.963745 1231.173828,578.419434 
	C1233.881226,578.240112 1236.616699,578.058899 1239.665527,577.856934 
	C1239.665527,574.580444 1239.665527,571.474121 1239.665527,568.008301 
	C1242.541016,568.008301 1245.106567,568.008301 1248.183838,568.008301 
	C1248.183838,571.133972 1248.183838,574.369202 1248.183838,577.987793 
	C1251.452759,577.987793 1254.229004,577.987793 1257.408203,577.987793 
	C1257.408203,580.579956 1257.408203,582.796082 1257.408203,585.421570 
	C1256.058350,585.501465 1254.612793,585.587036 1252.691772,585.673035 
z"/>
<path fill="#E7E8E8" opacity="1.000000" stroke="none" 
	d="
M1347.527100,612.400146 
	C1345.322754,612.402710 1343.532593,612.402710 1341.494995,612.402710 
	C1341.494995,600.858093 1341.494995,589.807861 1341.494995,577.677002 
	C1344.918457,578.324158 1347.956177,578.898376 1350.993896,579.472595 
	C1350.857300,579.810364 1350.720703,580.148132 1350.584106,580.485901 
	C1354.388916,579.472412 1358.193848,578.458923 1362.557617,577.296631 
	C1362.557617,580.626892 1362.557617,582.867737 1362.557617,585.117065 
	C1362.269409,585.310120 1362.012817,585.626648 1361.733154,585.648438 
	C1350.343750,586.535950 1350.126831,586.772217 1350.126953,598.525085 
	C1350.127075,602.182251 1350.283447,605.850281 1350.028442,609.489563 
	C1349.957397,610.502625 1348.670288,611.430542 1347.527100,612.400146 
z"/>
<path fill="#61A9EB" opacity="1.000000" stroke="none" 
	d="
M342.856384,521.335693 
	C347.364319,521.607544 351.872253,521.879333 356.865540,522.189575 
	C356.461182,523.614685 355.727539,525.146240 354.624207,526.334412 
	C353.941864,527.069275 352.326721,527.944702 351.761078,527.628540 
	C344.509857,523.575500 336.726044,526.209412 329.232117,525.766296 
	C317.039825,525.045471 308.272949,516.657288 309.110809,505.232361 
	C309.342377,502.074890 311.045593,499.016388 312.135376,495.934357 
	C312.752472,494.189117 313.383026,492.430237 314.230499,490.792908 
	C314.629730,490.021667 315.466888,489.149353 316.255859,488.964722 
	C319.544617,488.195099 322.890442,487.669403 326.618347,487.109009 
	C323.340240,490.187469 318.894867,492.639130 316.122833,496.343170 
	C308.155029,506.989655 314.717346,520.751221 328.024506,521.979492 
	C330.811615,522.236633 333.658356,521.847534 337.141113,521.527527 
	C339.488556,521.311157 341.172455,521.323425 342.856384,521.335693 
z"/>
<path fill="#E96D4A" opacity="1.000000" stroke="none" 
	d="
M1085.375732,529.124695 
	C1090.700439,528.397888 1095.809570,527.734314 1100.909668,527.797424 
	C1101.827637,527.808777 1103.567139,530.929626 1103.366455,532.402039 
	C1103.163940,533.886414 1101.154785,536.045288 1099.696899,536.257446 
	C1095.969482,536.799744 1092.028809,536.899048 1088.323608,536.278564 
	C1084.733887,535.677429 1083.679443,532.900513 1085.375732,529.124695 
z"/>
<path fill="#E96D4A" opacity="1.000000" stroke="none" 
	d="
M1071.520264,527.068481 
	C1075.341187,527.347595 1077.672119,529.345398 1076.615845,532.488953 
	C1076.015747,534.274963 1073.071899,535.803101 1070.898071,536.390503 
	C1068.439697,537.054749 1065.660156,536.578125 1063.022095,536.518494 
	C1059.932739,536.448669 1057.862671,534.976379 1057.917114,531.747986 
	C1057.971313,528.533142 1060.104004,527.132996 1063.164429,527.078186 
	C1065.803101,527.030823 1068.443115,527.064087 1071.520264,527.068481 
z"/>
<path fill="#61A9EB" opacity="1.000000" stroke="none" 
	d="
M341.681854,462.017944 
	C336.930756,468.718170 332.376068,475.674683 331.639069,484.476746 
	C331.566406,485.344788 329.798309,486.070892 328.461670,486.884735 
	C328.578613,476.527618 331.624146,467.518005 341.681854,462.017944 
z"/>
<path fill="#61A9EB" opacity="1.000000" stroke="none" 
	d="
M384.562805,522.177856 
	C384.317963,523.290405 383.608032,524.353577 382.758301,525.641785 
	C377.479034,525.802734 372.320648,525.969299 367.210266,525.550476 
	C365.403717,525.402405 363.714264,523.825317 361.869568,522.543457 
	C369.211060,522.166992 376.654388,522.147827 384.562805,522.177856 
z"/>
<path fill="#61A9EB" opacity="1.000000" stroke="none" 
	d="
M393.911682,527.785645 
	C396.926422,522.781189 401.855652,524.156067 406.222717,524.075745 
	C407.953613,524.043884 409.699432,524.821960 411.761230,525.421692 
	C405.983124,526.328369 399.882263,527.044678 393.911682,527.785645 
z"/>
<path fill="#61A9EB" opacity="1.000000" stroke="none" 
	d="
M362.634857,535.479553 
	C360.513214,535.801880 358.607330,535.784485 356.701477,535.767090 
	C357.186066,532.790222 357.670654,529.813293 358.155273,526.836426 
	C358.970276,526.802368 359.785278,526.768250 360.600281,526.734192 
	C361.350403,529.536072 362.100525,532.337891 362.634857,535.479553 
z"/>
<path fill="#61A9EB" opacity="1.000000" stroke="none" 
	d="
M343.662018,460.894958 
	C343.512360,461.272491 343.050720,461.659668 342.278687,462.034485 
	C342.428864,461.649597 342.889465,461.277130 343.662018,460.894958 
z"/>
<path fill="#1C1C1C" opacity="1.000000" stroke="none" 
	d="
M343.201019,521.184937 
	C341.172455,521.323425 339.488556,521.311157 337.489502,521.293213 
	C332.077454,517.907288 331.016174,514.888794 333.701508,509.676178 
	C335.328400,506.518158 337.584595,503.684357 339.614502,500.619659 
	C349.870636,510.764771 349.694031,517.685181 343.201019,521.184937 
M341.746735,517.188721 
	C346.553986,512.901672 341.784698,510.616516 340.225006,507.125458 
	C334.968689,514.468140 335.258148,516.588684 341.746735,517.188721 
z"/>
<path fill="#1C1C1C" opacity="1.000000" stroke="none" 
	d="
M771.850525,552.914062 
	C762.299011,552.914062 753.227722,552.914062 744.122803,552.914062 
	C744.884827,544.802795 751.474854,539.368042 760.409363,539.088501 
	C770.884216,538.760803 777.198181,543.396851 778.703369,552.914062 
	C776.536194,552.914062 774.433533,552.914062 771.850525,552.914062 
z"/>
<path fill="#1C1C1C" opacity="1.000000" stroke="none" 
	d="
M962.605957,575.585815 
	C966.029358,583.445312 965.378357,591.276489 963.701172,598.890442 
	C962.629883,603.753906 958.260498,605.199646 953.508728,605.078064 
	C948.884460,604.959839 944.757874,603.124756 944.201111,598.455627 
	C943.424500,591.943237 942.993774,585.093994 944.179321,578.716980 
	C945.705322,570.508728 955.573303,568.969971 962.605957,575.585815 
z"/>
<path fill="#1C1C1C" opacity="1.000000" stroke="none" 
	d="
M997.910461,605.552979 
	C990.897888,604.219543 987.883667,600.407104 988.511475,594.142700 
	C989.051025,588.759033 992.460693,585.267334 997.367371,585.073608 
	C1002.387207,584.875549 1006.195435,588.172974 1006.914246,593.340027 
	C1007.836304,599.968140 1004.993042,603.991211 997.910461,605.552979 
z"/>
<path fill="#1C1C1C" opacity="1.000000" stroke="none" 
	d="
M1210.840576,606.042480 
	C1209.282227,605.930176 1207.854614,606.170837 1207.047485,605.573242 
	C1205.855103,604.690491 1204.508545,603.275574 1204.367798,601.964844 
	C1204.268555,601.041260 1205.910278,599.259583 1207.038696,598.997314 
	C1210.863525,598.108459 1214.805908,597.725220 1219.014648,597.102722 
	C1219.147949,603.022095 1216.049316,605.282959 1210.840576,606.042480 
z"/>
<path fill="#1C1C1C" opacity="1.000000" stroke="none" 
	d="
M1042.363770,591.896545 
	C1037.648560,591.908203 1033.373047,591.908203 1028.885864,591.908203 
	C1028.998535,587.303345 1031.471924,585.362488 1035.343506,584.910217 
	C1039.207397,584.458862 1042.217529,585.846130 1043.626831,589.663452 
	C1043.834473,590.225952 1043.101318,591.135803 1042.363770,591.896545 
z"/>
<path fill="#1C1C1C" opacity="1.000000" stroke="none" 
	d="
M1167.821167,588.979675 
	C1170.025879,585.068604 1173.434937,583.985413 1176.885132,585.180481 
	C1179.289551,586.013367 1181.138306,588.450684 1183.235352,590.171265 
	C1182.977295,590.740540 1182.719238,591.309875 1182.461182,591.879150 
	C1177.802734,591.879150 1173.142700,591.926758 1168.489502,591.770386 
	C1168.185669,591.760132 1167.934204,590.187439 1167.821167,588.979675 
z"/>
<path fill="#1C1C1C" opacity="1.000000" stroke="none" 
	d="
M1316.186279,591.907349 
	C1314.468384,591.840393 1313.214722,591.773376 1311.584961,591.686218 
	C1312.315552,587.055115 1314.813965,585.026855 1318.966797,584.859741 
	C1323.411133,584.680908 1325.985352,586.866028 1327.231201,591.907166 
	C1323.390747,591.907166 1320.020630,591.907166 1316.186279,591.907349 
z"/>
<path fill="#61A9EB" opacity="1.000000" stroke="none" 
	d="
M341.427246,517.354614 
	C335.258148,516.588684 334.968689,514.468140 340.225006,507.125458 
	C341.784698,510.616516 346.553986,512.901672 341.427246,517.354614 
z"/>
</svg>